<?xml version="1.0" encoding="utf-8"?>
<!-- Generator: Adobe Illustrator 16.0.4, SVG Export Plug-In . SVG Version: 6.00 Build 0)  -->
<!DOCTYPE svg PUBLIC "-//W3C//DTD SVG 1.1//EN" "http://www.w3.org/Graphics/SVG/1.1/DTD/svg11.dtd">
<svg version="1.1" id="Layer_1" xmlns="http://www.w3.org/2000/svg" xmlns:xlink="http://www.w3.org/1999/xlink" x="0px" y="0px"
	 width="841.889px" height="595.281px" viewBox="0 0 841.889 595.281" enable-background="new 0 0 841.889 595.281"
	 xml:space="preserve">
<g>
	<path fill="#B5B5B5" d="M420.945,5.953c-161.083,0-291.688,130.604-291.688,291.688s130.604,291.688,291.688,291.688
		S712.632,458.723,712.632,297.64S582.028,5.953,420.945,5.953z M382.43,442.651c-29.347,29.347-77.148,29.347-106.555,0
		c-29.348-29.348-29.348-77.148,0-106.496l75.481-75.481c29.347-29.348,77.147-29.348,106.555,0c0.774,0.773,1.548,1.606,2.321,2.44
		c0.417,0.357,0.894,0.773,1.25,1.131c1.191,1.19,2.144,2.5,2.977,3.869c0.119,0.119,0.179,0.238,0.298,0.357l-0.06,0.06
		c3.632,6.846,2.56,15.478-3.215,21.192c-5.773,5.773-14.524,6.846-21.37,3.095c-0.477,0.477-5.179-4.227-7.738-6.727l0,0
		c-15.358-15.358-40.062-15.478-55.421-0.119l-75.601,75.602c-15.358,15.357-15.358,40.181,0,55.539l0,0
		c15.358,15.358,40.182,15.358,55.54,0l45.479-45.479c15.775,7.739,34.348,7.977,50.302,0.655L382.43,442.651z M565.955,259.126
		l-75.423,75.481c-29.347,29.348-77.147,29.348-106.555,0c-0.773-0.773-1.548-1.607-2.321-2.44c-0.417-0.357-0.894-0.774-1.25-1.131
		c-1.19-1.19-2.144-2.501-2.977-3.869c-0.119-0.119-0.179-0.238-0.298-0.357l0.06-0.06c-3.631-6.846-2.56-15.478,3.215-21.192
		c5.774-5.774,14.524-6.846,21.37-3.096c0.477-0.476,5.179,4.227,7.738,6.728l0,0c15.358,15.357,40.062,15.477,55.421,0.119
		l75.601-75.602c15.358-15.358,15.358-40.181,0-55.539l0,0c-15.358-15.358-40.182-15.358-55.54,0l-45.598,45.42
		c-15.716-7.68-34.348-7.978-50.302-0.655L459.4,152.63c29.348-29.347,77.148-29.347,106.556,0
		C595.362,181.977,595.362,229.778,565.955,259.126z"/>
</g>
</svg>
