<?xml version="1.0" encoding="utf-8"?>
<!-- Generator: Adobe Illustrator 16.0.4, SVG Export Plug-In . SVG Version: 6.00 Build 0)  -->
<!DOCTYPE svg PUBLIC "-//W3C//DTD SVG 1.1//EN" "http://www.w3.org/Graphics/SVG/1.1/DTD/svg11.dtd">
<svg version="1.1" id="Capa_1" xmlns="http://www.w3.org/2000/svg" xmlns:xlink="http://www.w3.org/1999/xlink" x="0px" y="0px"
	 width="475.1px" height="475.1px" viewBox="0 0 475.1 475.1" enable-background="new 0 0 475.1 475.1" xml:space="preserve">
<g>
	<path fill="#FC7E7E" d="M46.685,233.318c4.397-9.406,9.871-14.215,16.413-14.416c-3.064-3.479-5.623-8.342-7.672-14.572
		c-2.043-6.244-3.06-11.915-3.06-17.034c0-14.107,5.408-26.28,16.255-36.505c-3.689-6.542-5.528-13.604-5.528-21.166
		c0-7.569,1.787-15.085,5.369-22.547c3.576-7.457,8.438-12.829,14.572-16.103c-1.021-6.135-1.531-11.863-1.531-17.18
		c0-34.154,19.638-51.237,58.915-51.237h37.114c26.798,0,61.77,7.461,104.933,22.397c1.022,0.406,3.986,1.486,8.896,3.221
		c4.913,1.735,8.541,3.019,10.896,3.831c2.354,0.825,5.933,1.998,10.738,3.53c4.812,1.538,8.689,2.664,11.663,3.376
		c2.963,0.714,6.337,1.379,10.12,1.992c3.782,0.61,7.008,0.917,9.663,0.917h9.819v196.354l-8.213,6.872
		c-3.271,0-8.511-5.951-12.5-4.111s-8.081,4.603-12.273,8.282c-4.188,3.685-8.125,7.312-11.812,10.896
		c-3.685,3.576-7.771,8.078-12.274,13.496c-4.499,5.425-8.025,9.77-10.587,13.042c-2.554,3.272-5.773,7.465-9.662,12.578
		c-3.886,5.113-6.237,8.181-7.055,9.205c-11.25,13.906-19.125,23.215-23.621,27.918c-8.387,8.793-4.931,22.09-8.714,35.692
		c-3.786,13.604-11.056,27.934-13.501,40c-2.449,12.065-11.732,17.172-17.056,22.492c-19.637,0-32.728-4.809-39.271-14.423
		c-6.543-9.607-9.817-24.438-9.817-44.484c0-12.066-3.679-27.826,6.145-48.585c9.817-20.762,23.308-37.729,23.308-49.589H79.368
		c-10.236,0-19.336-3.938-27.312-11.814c-7.981-7.873-11.977-17.029-11.977-27.463C40.086,251.022,42.286,242.738,46.685,233.318z"
		/>
	<path d="M32.269,209.567c-9.328,14.089-13.981,29.603-13.981,46.538c0,19.606,7.225,36.642,21.687,51.117
		c14.47,14.465,31.604,21.695,51.396,21.695h50.251c-9.139,18.843-13.709,37.112-13.709,54.812c0,22.271,3.34,39.971,9.991,53.104
		c6.663,13.139,16.372,22.796,29.126,28.979c12.762,6.188,27.123,9.276,43.111,9.276c9.712,0,18.273-3.521,25.696-10.566
		c8.184-7.993,14.084-18.271,17.699-30.837c3.612-12.559,6.521-24.6,8.708-36.116c2.188-11.515,5.564-19.646,10.135-24.408
		c9.329-10.09,19.512-22.271,30.552-36.549c19.224-24.932,32.264-39.685,39.112-44.253h78.229c10.088,0,18.702-3.571,25.84-10.703
		c7.135-7.144,10.705-15.755,10.705-25.846V73.097c0-10.089-3.566-18.698-10.705-25.838c-7.142-7.139-15.752-10.711-25.84-10.711
		H338.05c-4.188,0-17.319-3.806-39.399-11.42c-23.413-8.188-44.017-14.418-61.812-18.702C219.041,2.143,201.007,0,182.732,0h-26.545
		h-10.284C119.067,0,97.465,7.666,81.094,22.99C64.729,38.314,56.635,59.203,56.824,85.66
		c-11.425,14.652-17.134,31.597-17.134,50.814c0,4.188,0.281,8.276,0.854,12.277c-7.229,12.748-10.854,26.453-10.854,41.106
		C29.699,196.72,30.553,203.29,32.269,209.567z M389.149,78.519c3.616-3.614,7.898-5.429,12.847-5.429
		c4.95,0,9.233,1.812,12.854,5.429c3.614,3.612,5.424,7.896,5.424,12.854c0,4.943-1.805,9.229-5.424,12.847
		c-3.621,3.617-7.9,5.425-12.854,5.425c-4.943,0-9.229-1.808-12.847-5.425c-3.617-3.616-5.426-7.897-5.426-12.847
		C383.723,86.416,385.532,82.132,389.149,78.519z M60.953,232.68c4.093-8.754,9.186-13.228,15.271-13.415
		c-2.854-3.237-5.23-7.763-7.14-13.562c-1.901-5.812-2.849-11.087-2.849-15.853c0-13.127,5.034-24.455,15.127-33.97
		c-3.434-6.088-5.145-12.657-5.145-19.696c0-7.043,1.663-14.038,4.996-20.979c3.327-6.939,7.852-11.938,13.56-14.982
		c-0.947-5.709-1.424-11.039-1.424-15.987c0-31.78,18.274-47.679,54.823-47.679h34.536c24.938,0,57.479,6.943,97.646,20.842
		c0.953,0.38,3.71,1.383,8.28,2.998c4.571,1.614,7.948,2.811,10.139,3.564c2.189,0.768,5.521,1.856,9.993,3.285
		c4.479,1.431,8.087,2.479,10.854,3.142c2.758,0.664,5.896,1.283,9.419,1.855c3.52,0.566,6.519,0.854,8.992,0.854h9.137v182.717
		h-9.137c-3.048,0-6.428,0.858-10.14,2.568c-3.711,1.714-7.52,4.282-11.421,7.71c-3.898,3.427-7.562,6.805-10.992,10.138
		c-3.427,3.33-7.229,7.521-11.422,12.562c-4.187,5.046-7.47,9.089-9.851,12.136c-2.378,3.045-5.375,6.943-8.992,11.706
		c-3.615,4.758-5.806,7.608-6.565,8.562c-10.469,12.941-17.797,21.604-21.979,25.981c-7.805,8.182-13.466,18.603-16.987,31.261
		c-3.521,12.66-6.427,24.604-8.703,35.832c-2.277,11.229-5.898,19.321-10.854,24.27c-18.271,0-30.453-4.471-36.542-13.418
		c-6.089-8.939-9.135-22.746-9.135-41.396c0-11.229,4.567-26.503,13.71-45.821c9.135-19.319,13.693-34.5,13.693-45.539H91.367
		c-9.526,0-17.993-3.657-25.413-10.989c-7.431-7.327-11.146-15.848-11.146-25.558C54.814,249.156,56.861,241.446,60.953,232.68z"/>
</g>
</svg>
