<?xml version="1.0" encoding="utf-8"?>
<!-- Generator: Adobe Illustrator 16.0.4, SVG Export Plug-In . SVG Version: 6.00 Build 0)  -->
<!DOCTYPE svg PUBLIC "-//W3C//DTD SVG 1.1//EN" "http://www.w3.org/Graphics/SVG/1.1/DTD/svg11.dtd">
<svg version="1.1" id="Capa_1" xmlns="http://www.w3.org/2000/svg" xmlns:xlink="http://www.w3.org/1999/xlink" x="0px" y="0px"
	 width="475.1px" height="475.1px" viewBox="0 0 475.1 475.1" enable-background="new 0 0 475.1 475.1" xml:space="preserve">
<g>
	<path fill="#82FFA9" d="M430.246,239.343c-4.448,9.515-9.985,14.379-16.606,14.582c3.104,3.518,5.69,8.438,7.764,14.742
		c2.065,6.314,3.095,12.053,3.095,17.229c0,14.271-5.476,26.582-16.441,36.928c3.729,6.617,5.588,13.756,5.588,21.408
		c0,7.656-1.809,15.26-5.429,22.812c-3.617,7.54-8.536,12.976-14.742,16.283c1.034,6.207,1.547,12,1.547,17.38
		c0,34.553-19.862,51.829-59.594,51.829H297.88c-27.111,0-62.487-7.546-106.149-22.655c-1.036-0.413-4.031-1.504-8.999-3.261
		c-4.969-1.752-8.64-3.05-11.021-3.872c-2.379-0.837-6-2.022-10.865-3.57c-4.865-1.557-8.791-2.695-11.794-3.415
		c-2.998-0.722-6.414-1.396-10.239-2.018c-3.828-0.622-7.088-0.928-9.774-0.928h-9.934V214.194h9.934
		c3.31,0,6.98-0.933,11.017-2.792c4.034-1.862,8.176-4.654,12.416-8.382c4.242-3.725,8.221-7.396,11.948-11.02
		c3.727-3.62,7.861-8.173,12.417-13.654c4.553-5.485,8.122-9.88,10.71-13.192c2.585-3.31,5.843-7.553,9.774-12.725
		c3.929-5.172,6.312-8.276,7.138-9.312c11.378-14.066,19.344-23.481,23.896-28.241c8.484-8.896,5.372-18.067,9.197-31.825
		c3.832-13.763,10.027-29.795,12.5-42c2.48-12.208,12.646-20.113,18.031-25.494c19.857,0,33.104,4.86,39.723,14.586
		c6.619,9.723,9.93,24.728,9.93,45.002c0,12.207,2.249,31.907-7.684,52.905c-9.931,21.002-22.11,34.408-22.11,46.408h109.245
		c10.354,0,19.561,3.979,27.626,11.951c8.072,7.965,12.112,17.222,12.112,27.776C436.919,221.431,434.696,229.812,430.246,239.343z"
		/>
	<path d="M442.826,265.532c9.328-14.092,13.986-29.601,13.986-46.538c0-19.606-7.225-36.64-21.688-51.117
		c-14.472-14.465-31.604-21.695-51.396-21.695h-50.25c9.136-18.843,13.709-37.117,13.709-54.813c0-22.271-3.34-39.974-9.996-53.104
		c-6.663-13.139-16.372-22.796-29.126-28.984C295.313,3.092,280.947,0,264.959,0c-9.712,0-18.273,3.521-25.696,10.563
		c-8.184,7.993-14.084,18.273-17.699,30.837c-3.617,12.562-6.521,24.603-8.708,36.116c-2.187,11.517-5.566,19.651-10.135,24.41
		c-9.329,10.088-19.512,22.272-30.552,36.547c-19.227,24.935-32.267,39.688-39.112,44.255H54.828
		c-10.088,0-18.702,3.574-25.843,10.706c-7.135,7.142-10.702,15.752-10.702,25.841v182.727c0,10.089,3.563,18.695,10.702,25.838
		c7.145,7.139,15.755,10.711,25.843,10.711h82.221c4.188,0,17.319,3.806,39.396,11.42c23.413,8.186,44.02,14.418,61.812,18.702
		c17.797,4.28,35.831,6.427,54.104,6.427h26.548h10.281c26.836,0,48.438-7.666,64.812-22.99
		c16.362-15.324,24.459-36.213,24.271-62.67c11.42-14.657,17.129-31.597,17.129-50.819c0-4.185-0.281-8.273-0.854-12.274
		c7.229-12.748,10.854-26.453,10.854-41.11C445.399,278.379,444.545,271.809,442.826,265.532z M85.949,396.577
		c-3.616,3.614-7.898,5.432-12.85,5.432s-9.23-1.813-12.851-5.432c-3.614-3.609-5.424-7.896-5.424-12.85
		c0-4.948,1.805-9.229,5.424-12.847c3.621-3.617,7.897-5.427,12.851-5.427c4.948,0,9.23,1.81,12.85,5.427
		c3.614,3.613,5.426,7.896,5.426,12.847C91.375,388.683,89.566,392.968,85.949,396.577z M414.145,242.419
		c-4.093,8.754-9.186,13.228-15.276,13.415c2.854,3.234,5.235,7.763,7.143,13.562c1.898,5.81,2.847,11.087,2.847,15.851
		c0,13.127-5.037,24.452-15.126,33.97c3.43,6.088,5.141,12.654,5.141,19.693c0,7.043-1.663,14.038-4.993,20.984
		c-3.327,6.938-7.854,11.938-13.562,14.982c0.951,5.709,1.423,11.036,1.423,15.984c0,31.785-18.271,47.682-54.82,47.682h-34.54
		c-24.939,0-57.482-6.943-97.647-20.845c-0.953-0.38-3.709-1.383-8.277-2.998c-4.571-1.611-7.948-2.806-10.141-3.562
		c-2.188-0.771-5.519-1.861-9.994-3.285c-4.476-1.431-8.087-2.479-10.85-3.142c-2.758-0.664-5.9-1.283-9.419-1.855
		c-3.521-0.571-6.521-0.854-8.992-0.854h-9.137V219.285h9.137c3.045,0,6.423-0.858,10.135-2.568
		c3.711-1.714,7.521-4.282,11.423-7.71c3.901-3.427,7.562-6.805,10.99-10.138c3.43-3.33,7.232-7.52,11.422-12.562
		c4.188-5.046,7.473-9.089,9.854-12.136c2.378-3.045,5.375-6.948,8.992-11.706c3.612-4.758,5.806-7.613,6.564-8.566
		c10.467-12.938,17.795-21.601,21.981-25.979c7.805-8.185,13.466-18.604,16.984-31.261c3.525-12.66,6.43-24.604,8.703-35.832
		c2.282-11.229,5.903-19.321,10.857-24.271c18.269,0,30.453,4.471,36.542,13.418c6.089,8.944,9.135,22.746,9.135,41.398
		c0,11.229-4.572,26.503-13.71,45.818c-9.135,19.32-13.698,34.5-13.698,45.539H383.73c9.526,0,17.993,3.662,25.413,10.994
		c7.426,7.327,11.143,15.843,11.143,25.553C420.281,225.943,418.237,233.653,414.145,242.419z"/>
</g>
</svg>
