<?xml version="1.0" encoding="utf-8"?>
<!-- Generator: Adobe Illustrator 16.0.4, SVG Export Plug-In . SVG Version: 6.00 Build 0)  -->
<!DOCTYPE svg PUBLIC "-//W3C//DTD SVG 1.1//EN" "http://www.w3.org/Graphics/SVG/1.1/DTD/svg11.dtd">
<svg version="1.1" id="Capa_1" xmlns="http://www.w3.org/2000/svg" xmlns:xlink="http://www.w3.org/1999/xlink" x="0px" y="0px"
	 width="475.1px" height="475.1px" viewBox="0 0 475.1 475.1" enable-background="new 0 0 475.1 475.1" xml:space="preserve">
<g>
	<path d="M32.269,209.567c-9.328,14.089-13.986,29.598-13.986,46.538c0,19.606,7.225,36.637,21.687,51.117
		c14.47,14.465,31.602,21.695,51.395,21.695h50.251c-9.134,18.843-13.709,37.117-13.709,54.816c0,22.271,3.34,39.971,9.996,53.104
		c6.663,13.139,16.372,22.796,29.126,28.984c12.757,6.187,27.123,9.276,43.111,9.276c9.712,0,18.273-3.521,25.696-10.566
		c8.184-7.993,14.084-18.273,17.699-30.837c3.617-12.559,6.521-24.6,8.708-36.116c2.188-11.515,5.569-19.651,10.135-24.41
		c9.329-10.088,19.512-22.272,30.552-36.547c19.224-24.932,32.264-39.685,39.112-44.255h78.229c10.088,0,18.702-3.574,25.84-10.706
		c7.135-7.139,10.705-15.752,10.705-25.841V73.097c0-10.089-3.566-18.698-10.705-25.838c-7.142-7.139-15.752-10.711-25.84-10.711
		H338.05c-4.188,0-17.319-3.806-39.399-11.42c-23.413-8.186-44.017-14.418-61.812-18.702C219.041,2.143,201.007,0,182.732,0h-26.545
		h-10.284c-26.836,0-48.438,7.666-64.809,22.99C64.729,38.314,56.635,59.203,56.824,85.66
		c-11.42,14.657-17.129,31.597-17.129,50.819c0,4.185,0.281,8.276,0.854,12.277c-7.229,12.748-10.854,26.453-10.854,41.11
		C29.699,196.72,30.553,203.29,32.269,209.567z M389.149,78.519c3.616-3.614,7.898-5.429,12.847-5.429
		c4.95,0,9.233,1.813,12.851,5.429c3.614,3.612,5.424,7.896,5.424,12.85c0,4.948-1.805,9.229-5.424,12.847
		c-3.621,3.617-7.9,5.425-12.851,5.425c-4.948,0-9.23-1.808-12.847-5.425c-3.617-3.616-5.426-7.897-5.426-12.847
		C383.723,86.416,385.532,82.132,389.149,78.519z M60.953,232.68c4.093-8.754,9.186-13.228,15.276-13.415
		c-2.854-3.237-5.235-7.763-7.14-13.562c-1.901-5.807-2.847-11.087-2.847-15.848c0-13.127,5.037-24.455,15.126-33.97
		c-3.43-6.088-5.141-12.657-5.141-19.696c0-7.043,1.663-14.038,4.996-20.984c3.327-6.939,7.851-11.938,13.559-14.982
		c-0.951-5.709-1.423-11.039-1.423-15.987c0-31.785,18.274-47.679,54.823-47.679h34.536c24.939,0,57.482,6.943,97.647,20.842
		c0.953,0.38,3.709,1.383,8.28,2.998c4.571,1.614,7.948,2.806,10.138,3.564c2.19,0.768,5.519,1.861,9.994,3.285
		c4.476,1.431,8.087,2.479,10.85,3.142c2.758,0.664,5.9,1.283,9.419,1.855c3.52,0.571,6.519,0.854,8.992,0.854h9.137v182.717h-9.137
		c-3.045,0-6.423,0.858-10.135,2.568c-3.711,1.714-7.52,4.282-11.421,7.71c-3.903,3.427-7.563,6.805-10.992,10.138
		c-3.427,3.33-7.232,7.517-11.422,12.559c-4.187,5.046-7.47,9.089-9.851,12.136c-2.378,3.045-5.375,6.948-8.992,11.706
		c-3.615,4.758-5.806,7.613-6.567,8.566c-10.467,12.941-17.795,21.601-21.981,25.981c-7.805,8.182-13.466,18.603-16.987,31.261
		c-3.525,12.66-6.427,24.604-8.703,35.832c-2.282,11.229-5.903,19.321-10.857,24.27c-18.269,0-30.453-4.471-36.542-13.418
		c-6.089-8.944-9.135-22.746-9.135-41.398c0-11.229,4.572-26.503,13.71-45.821c9.135-19.32,13.698-34.5,13.698-45.539H91.367
		c-9.526,0-17.993-3.662-25.413-10.994c-7.426-7.327-11.143-15.843-11.143-25.553C54.814,249.156,56.861,241.446,60.953,232.68z"/>
</g>
</svg>
